<?xml version="1.0" standalone="no"?>
<!DOCTYPE svg PUBLIC "-//W3C//DTD SVG 20010904//EN"
 "http://www.w3.org/TR/2001/REC-SVG-20010904/DTD/svg10.dtd">
<svg version="1.0" xmlns="http://www.w3.org/2000/svg"
 width="800.000000pt" height="800.000000pt" viewBox="0 0 800.000000 800.000000"
 preserveAspectRatio="xMidYMid meet">
<metadata>
Created by potrace 1.14, written by Peter Selinger 2001-2017
</metadata>
<g transform="translate(0.000000,800.000000) scale(0.100000,-0.100000)"
fill="#000000" stroke="none">
<path d="M2806 6054 c-177 -43 -324 -177 -426 -388 -73 -154 -101 -275 -107
-479 -9 -255 25 -451 116 -682 114 -287 269 -503 481 -672 136 -108 232 -154
507 -242 122 -40 262 -92 312 -116 122 -62 207 -144 258 -251 36 -75 38 -84
37 -174 0 -109 -19 -168 -85 -270 -85 -132 -191 -219 -366 -301 -83 -39 -104
-53 -109 -74 -8 -31 9 -73 32 -82 44 -17 198 53 329 147 239 174 359 395 341
630 -7 91 -23 146 -71 242 -46 91 -89 145 -174 214 -84 70 -196 123 -456 219
-247 91 -335 134 -430 212 -147 119 -268 276 -360 468 -101 207 -133 349 -142
613 -6 176 1 231 44 371 29 92 100 208 158 260 101 89 224 111 359 67 81 -27
197 -95 253 -148 31 -30 31 -31 17 -70 -28 -82 -11 -191 44 -271 90 -132 105
-157 139 -227 20 -41 51 -116 69 -167 18 -51 49 -125 68 -165 69 -143 223
-302 383 -395 75 -44 82 -51 83 -79 0 -34 41 -78 113 -123 l38 -23 100 61 c55
33 103 61 105 61 3 0 54 -39 112 -87 210 -172 418 -337 447 -355 61 -37 125
-14 159 56 12 26 16 65 16 168 0 154 -8 176 -86 231 -139 96 -284 211 -277
218 25 24 237 149 247 145 6 -2 81 -54 166 -115 328 -232 379 -265 415 -265
48 0 84 22 106 66 27 52 28 275 1 328 -19 39 -71 77 -384 278 l-198 127 0 141
c0 160 9 142 -103 217 -59 40 -72 45 -94 36 -30 -11 -32 -10 -217 120 -78 55
-150 97 -180 107 -28 8 -134 22 -236 29 -102 8 -210 19 -240 25 -124 24 -277
84 -346 136 -44 34 -74 30 -147 -21 l-64 -44 -34 36 c-56 59 -186 151 -273
193 -155 75 -312 97 -450 64z m957 -743 c40 -61 225 -268 326 -364 50 -48 91
-90 91 -94 0 -4 -15 -19 -32 -34 -32 -26 -33 -30 -38 -115 l-5 -89 -46 95
c-25 52 -71 139 -102 192 -69 119 -213 395 -222 426 -9 32 -1 27 28 -17z
m1147 -156 c0 -7 -148 -117 -270 -200 -310 -210 -322 -219 -340 -255 -24 -47
-30 -84 -39 -221 l-7 -114 -9 70 c-11 90 7 254 32 297 19 34 141 120 418 297
201 128 215 136 215 126z m298 -242 c277 -180 498 -327 504 -337 4 -6 8 -66 8
-133 0 -120 -1 -123 -25 -139 -23 -15 -27 -15 -62 6 -21 12 -103 68 -183 125
-80 56 -201 141 -270 188 l-125 85 -3 151 c-3 152 -2 152 18 141 12 -6 74 -46
138 -87z m-390 -552 c352 -265 327 -234 321 -389 -4 -94 -21 -132 -59 -132 -9
0 -82 53 -162 118 -80 64 -213 171 -294 237 -82 66 -152 124 -156 130 -9 12
-11 279 -2 288 8 8 -24 31 352 -252z"/>
<path d="M5581 4536 c-18 -21 -10 -87 12 -100 14 -8 20 -8 27 4 15 23 12 77
-6 94 -19 19 -19 19 -33 2z"/>
<path d="M4982 4088 c-29 -29 -3 -118 32 -105 19 7 22 67 6 98 -12 22 -21 24
-38 7z"/>
</g>
</svg>
