<?xml version="1.0" standalone="no"?>
<!DOCTYPE svg PUBLIC "-//W3C//DTD SVG 20010904//EN"
 "http://www.w3.org/TR/2001/REC-SVG-20010904/DTD/svg10.dtd">
<svg version="1.0" xmlns="http://www.w3.org/2000/svg"
 width="620.000000pt" height="620.000000pt" viewBox="0 0 620.000000 620.000000"
 preserveAspectRatio="xMidYMid meet">
<metadata>
Created by potrace 1.14, written by Peter Selinger 2001-2017
</metadata>
<g transform="translate(0.000000,620.000000) scale(0.100000,-0.100000)"
fill="#000000" stroke="none">
<path d="M2888 6195 c-1 -2 -36 -6 -77 -9 -227 -19 -599 -102 -761 -169 -14
-5 -29 -11 -35 -13 -60 -15 -336 -145 -460 -217 -128 -74 -360 -233 -411 -281
-6 -6 -36 -31 -65 -56 -94 -77 -301 -291 -392 -405 -110 -136 -229 -316 -319
-480 -84 -153 -221 -491 -253 -625 -2 -8 -13 -51 -24 -95 -11 -44 -22 -91 -25
-105 -38 -211 -40 -221 -53 -358 -10 -97 -10 -463 0 -563 8 -81 16 -148 23
-189 2 -14 9 -54 14 -88 27 -163 121 -478 193 -647 31 -73 180 -366 203 -400
12 -17 52 -76 89 -133 245 -368 614 -714 1002 -938 270 -156 545 -267 843
-339 89 -21 154 -34 319 -60 163 -27 625 -26 801 1 35 5 178 29 235 39 121 22
425 115 522 160 17 8 35 15 40 15 18 0 297 142 394 201 160 96 331 220 454
329 74 65 250 245 305 310 30 36 58 67 61 70 10 9 144 193 182 252 56 85 157
258 151 258 -3 0 3 12 14 28 69 100 232 548 268 737 2 11 8 40 14 65 12 54 36
216 47 320 15 148 8 576 -12 690 -2 14 -7 43 -10 65 -30 210 -123 543 -204
730 -138 317 -318 606 -525 845 -48 55 -266 271 -316 313 -413 348 -901 584
-1420 687 -80 15 -176 32 -215 35 -38 4 -79 10 -90 12 -23 6 -501 13 -507 8z"/>
</g>
</svg>
